<svg width="18" height="22" viewBox="0 0 18 22" fill="none" xmlns="http://www.w3.org/2000/svg">
<path d="M10.8 13.6211V16.5H12.6C13.0875 16.5 13.5094 16.6361 13.8656 16.9082C14.2219 17.1803 14.4 17.5062 14.4 17.8857C14.4 18.2653 14.2219 18.5876 13.8656 18.8525C13.5094 19.1175 13.0875 19.25 12.6 19.25H10.8V20.625C10.8 21.0117 10.6219 21.3376 10.2656 21.6025C9.90937 21.8675 9.48281 22 8.98594 22C8.48906 22 8.06719 21.8675 7.72031 21.6025C7.37344 21.3376 7.2 21.0117 7.2 20.625V19.25H5.4C4.89375 19.25 4.46719 19.1175 4.12031 18.8525C3.77344 18.5876 3.6 18.2653 3.6 17.8857C3.6 17.5062 3.77344 17.1803 4.12031 16.9082C4.46719 16.6361 4.89375 16.5 5.4 16.5H7.2V13.6211C5.11875 13.2917 3.39844 12.4967 2.03906 11.2363C0.679688 9.97591 0 8.52214 0 6.875C0 5.62891 0.403125 4.47949 1.20937 3.42676C2.01562 2.37402 3.10781 1.53971 4.48594 0.923828C5.86406 0.307943 7.36875 0 9 0C10.6312 0 12.1359 0.307943 13.5141 0.923828C14.8922 1.53971 15.9844 2.37402 16.7906 3.42676C17.5969 4.47949 18 5.62891 18 6.875C18 8.52214 17.3156 9.97591 15.9469 11.2363C14.5781 12.4967 12.8625 13.2917 10.8 13.6211ZM8.98594 2.75C7.49531 2.75 6.225 3.15462 5.175 3.96387C4.125 4.77311 3.6 5.74707 3.6 6.88574C3.6 8.02441 4.125 8.99479 5.175 9.79688C6.225 10.599 7.49531 11 8.98594 11C10.4766 11 11.7516 10.599 12.8109 9.79688C13.8703 8.99479 14.4 8.02441 14.4 6.88574C14.4 5.74707 13.8703 4.77311 12.8109 3.96387C11.7516 3.15462 10.4766 2.75 8.98594 2.75Z" fill="white"/>
</svg>
