<svg width="22" height="22" viewBox="0 0 22 22" fill="none" xmlns="http://www.w3.org/2000/svg">
<g clip-path="url(#clip0)">
<path d="M11.0921 1.01782e-06C11.4538 1.01782e-06 11.8071 0.023376 12.1371 0.078376C12.4621 0.120963 12.7828 0.191815 13.0955 0.290126C13.4104 0.385001 13.717 0.503251 14.0236 0.651751C14.322 0.793376 14.6286 0.966626 14.9339 1.155C15.4251 1.47006 15.9432 1.74108 16.4821 1.96488C17.5057 2.37461 18.5882 2.6183 19.6886 2.68675C20.2455 2.72663 20.8189 2.75 21.417 2.75V8.25C21.417 9.295 21.2836 10.285 21.0155 11.2283C20.7597 12.158 20.3961 13.0546 19.932 13.8999C19.469 14.744 18.9212 15.5387 18.2971 16.2718C17.6644 17.0215 16.9793 17.7255 16.247 18.3783C15.5045 19.0329 14.7225 19.6414 13.9054 20.2001C13.0886 20.7666 12.2636 21.2933 11.4386 21.7718L11.1086 21.9684L10.7786 21.7718C9.93052 21.2807 9.10213 20.7565 8.29538 20.2001C7.47367 19.6477 6.69125 19.0389 5.95375 18.3783C5.2214 17.7255 4.53631 17.0215 3.90363 16.2718C3.28123 15.5356 2.731 14.7413 2.2605 13.8999C1.80438 13.0509 1.44112 12.1551 1.177 11.2283C0.908561 10.2585 0.776211 9.25618 0.783752 8.25V2.75C1.3805 2.75 1.95388 2.72663 2.51213 2.68675C3.06212 2.64865 3.60856 2.57006 4.147 2.45163C4.67363 2.33338 5.19888 2.17663 5.71863 1.96488C6.25653 1.74778 6.77225 1.47933 7.25863 1.16325C7.86363 0.770001 8.4755 0.479876 9.0805 0.288751C9.73207 0.089007 10.4107 -0.00840231 11.0921 1.01782e-06V1.01782e-06ZM20.0338 4.10163C18.9929 4.05111 17.9618 3.8771 16.962 3.58325C15.9675 3.2866 15.0203 2.85002 14.1488 2.28663C13.6958 1.98968 13.2039 1.75693 12.6871 1.595C12.1727 1.43954 11.6378 1.36259 11.1004 1.36675C10.5576 1.36311 10.0173 1.44003 9.49713 1.595C8.98098 1.752 8.49113 1.98511 8.04375 2.28663C7.17078 2.85356 6.22109 3.29252 5.22363 3.59013C4.24875 3.87338 3.22713 4.04663 2.15875 4.10988V8.25825C2.15875 9.16988 2.277 10.0416 2.51213 10.8818C2.75306 11.7146 3.08507 12.5183 3.50213 13.2784C3.92418 14.0464 4.42163 14.7704 4.98713 15.4399C5.5605 16.115 6.17375 16.7434 6.83375 17.3401C7.49375 17.9383 8.18538 18.4883 8.90863 18.9984C9.63875 19.5099 10.3689 19.9733 11.1004 20.3968C11.8475 19.9615 12.576 19.4949 13.2839 18.9984C14.0124 18.4899 14.7081 17.9361 15.367 17.3401C16.027 16.7434 16.6389 16.115 17.2136 15.4399C17.7791 14.7704 18.2765 14.0463 18.6986 13.2784C19.1132 12.5191 19.4399 11.7151 19.6721 10.8818C19.9163 10.0288 20.038 9.14546 20.0338 8.25825V4.10163V4.10163Z" fill="white"/>
<path fill-rule="evenodd" clip-rule="evenodd" d="M12.9704 6.49C13.2055 6.72512 13.4022 7.00837 13.5355 7.32325C13.6772 7.63675 13.7487 7.98325 13.7404 8.36C13.7489 8.66097 13.6956 8.96048 13.5837 9.24C13.4781 9.47598 13.3432 9.69772 13.1822 9.9C13.0367 10.0904 12.8738 10.2667 12.6954 10.4266C12.5335 10.5652 12.3789 10.7121 12.232 10.8666C12.1018 10.997 11.9907 11.1451 11.902 11.3066C11.8218 11.4532 11.781 11.6181 11.7838 11.7851V12.2801L11.6037 12.4699H10.6205L10.4239 12.2732V11.7837C10.4239 11.4537 10.4789 11.165 10.5889 10.912C10.692 10.6686 10.8172 10.4404 10.9739 10.2437C11.1279 10.0559 11.2961 9.88033 11.4772 9.7185C11.6422 9.56862 11.792 9.427 11.9337 9.2785C12.067 9.13687 12.1839 8.987 12.2705 8.83025C12.3518 8.68111 12.3926 8.51329 12.3888 8.3435C12.3869 8.17351 12.3523 8.00547 12.287 7.8485C12.2216 7.69603 12.1283 7.55708 12.012 7.43875C11.7702 7.20027 11.4442 7.06658 11.1045 7.06658C10.7649 7.06658 10.4389 7.20027 10.197 7.43875C10.0782 7.55499 9.98459 7.69448 9.92204 7.8485C9.85104 8.0037 9.8158 8.17286 9.81892 8.3435L9.62504 8.53875H8.64192L8.46179 8.35037C8.46179 7.98875 8.52504 7.64362 8.66529 7.32187C8.80692 7.007 8.99529 6.72375 9.23179 6.48862C9.47517 6.24525 9.75842 6.04862 10.0719 5.91525C10.3979 5.77335 10.7497 5.70012 11.1052 5.70012C11.4608 5.70012 11.8125 5.77335 12.1385 5.91525C12.4534 6.05687 12.7353 6.24525 12.9718 6.48862L12.9704 6.49ZM10.4088 13.2632L10.6054 13.0666H11.5872L11.7838 13.2632V14.245L11.5872 14.4416H10.6054L10.4088 14.245V13.2632V13.2632Z" fill="white"/>
</g>
<defs>
<clipPath id="clip0">
<rect width="22" height="22" fill="white"/>
</clipPath>
</defs>
</svg>
