<svg width="23" height="24" viewBox="0 0 23 24" fill="none" xmlns="http://www.w3.org/2000/svg">
<path d="M8.53842 23.0066C4.0529 23.0066 0.403809 19.3575 0.403809 14.872C0.403809 10.3865 4.0529 6.73739 8.53842 6.73739C13.0239 6.73739 16.673 10.3865 16.673 14.872C16.673 19.3575 13.0239 23.0066 8.53842 23.0066ZM8.53842 9.60843C5.63676 9.60843 3.27485 11.9703 3.27485 14.872C3.27485 17.7737 5.63676 20.1356 8.53842 20.1356C11.4401 20.1356 13.802 17.7737 13.802 14.872C13.802 11.9703 11.4401 9.60843 8.53842 9.60843Z" fill="white"/>
<path d="M21.5459 0.410522H12.8514C12.4658 0.410522 12.0959 0.553362 11.8232 0.807618C11.5505 1.06187 11.3973 1.40672 11.3973 1.76629C11.3973 2.12586 11.5505 2.47071 11.8232 2.72497C12.0959 2.97922 12.4658 3.12206 12.8514 3.12206H18.0357L11.25 9.33962L13.3061 11.2567L20.0918 5.03912V9.90091C20.0918 10.2605 20.245 10.6053 20.5177 10.8596C20.7904 11.1138 21.1603 11.2567 21.5459 11.2567C21.9316 11.2567 22.3014 11.1138 22.5741 10.8596C22.8468 10.6053 23 10.2605 23 9.90091V1.76629C23 1.40672 22.8468 1.06187 22.5741 0.807618C22.3014 0.553362 21.9316 0.410522 21.5459 0.410522Z" fill="white"/>
</svg>
